# xmcd
#
# Track frame offsets:
#	150
#	12889
#	33761
#	46413
#	73483
#	85456
#	92506
#	107147
#	130307
#	142389
#	165077
#	181058
#
# Disc length: 2498 seconds
#
# Revision: 0
# Processed by: cddbd v1.5.2PL0 Copyright (c) Steve Scherf et al.
# Submitted via: audiograbber 1.83.01
#
DISCID=9e09c00c
DTITLE=Glyder - Glyder (LP)
DYEAR=1900
DGENRE=Pop
TTITLE0=It Doesn´t Matter Anymore
TTITLE1=She Left Me At The Station
TTITLE2=Good To Be Alive
TTITLE3=Cause I Lopved You
TTITLE4=Too Far
TTITLE5=Tomorrow Still Comes
TTITLE6=Treat Me Nice
TTITLE7=See It Now
TTITLE8=Long Fight
TTITLE9=Love Gave Me Everything
TTITLE10=Simple Song
TTITLE11=Cause I Loved You
EXTD=
EXTT0=
EXTT1=
EXTT2=
EXTT3=
EXTT4=
EXTT5=
EXTT6=
EXTT7=
EXTT8=
EXTT9=
EXTT10=
EXTT11=
PLAYORDER=
